# xmcd
#
# Track frame offsets: 
#        150
#        17176
#        34292
#        49761
#        70002
#        87826
#        106019
#        125623
#        143096
#        162990
#        180238
#        198431
#        214563
#        231758
#        245654
#        259991
#        280835
#        294622
#
# Disc length: 4209 seconds
#
# Revision: 2
# Processed by: cddbd v1.5.2PL0 Copyright (c) Steve Scherf et al.
# Submitted via: ExactAudioCopy v0.99pb5
#
DISCID=03106f12
DTITLE=Various Artist - Maximum Hit Power
DYEAR=1900
DGENRE=
TTITLE0=Pure And Simple
TTITLE1=Don't Let Me Be The Last To Know
TTITLE2=Stutter
TTITLE3=Nobody Wants To Be Lonely
TTITLE4=I'm Like A Bird
TTITLE5=Ms. Jackson
TTITLE6=Teenage Dirt Bag
TTITLE7=Teenage Dirt Bag
TTITLE8=All For You
TTITLE9=It Wasn't Me
TTITLE10=Survivor
TTITLE11=Butterfly
TTITLE12=Inner Smile
TTITLE13=Uptown Girl
TTITLE14=Give Me A Reason
TTITLE15=Let Love Be Your Energy
TTITLE16=Whole Again
TTITLE17=Chillin'
EXTD=
EXTT0=
EXTT1=
EXTT2=
EXTT3=
EXTT4=
EXTT5=
EXTT6=
EXTT7=
EXTT8=
EXTT9=
EXTT10=
EXTT11=
EXTT12=
EXTT13=
EXTT14=
EXTT15=
EXTT16=
EXTT17=
PLAYORDER=
